<?xml version="1.0" encoding="utf-8"?>
<!-- Generator: Adobe Illustrator 27.2.0, SVG Export Plug-In . SVG Version: 6.00 Build 0)  -->
<!DOCTYPE svg PUBLIC "-//W3C//DTD SVG 1.1//EN" "http://www.w3.org/Graphics/SVG/1.1/DTD/svg11.dtd" [
	<!ENTITY ns_extend "http://ns.adobe.com/Extensibility/1.0/">
	<!ENTITY ns_ai "http://ns.adobe.com/AdobeIllustrator/10.0/">
	<!ENTITY ns_graphs "http://ns.adobe.com/Graphs/1.0/">
	<!ENTITY ns_vars "http://ns.adobe.com/Variables/1.0/">
	<!ENTITY ns_imrep "http://ns.adobe.com/ImageReplacement/1.0/">
	<!ENTITY ns_sfw "http://ns.adobe.com/SaveForWeb/1.0/">
	<!ENTITY ns_custom "http://ns.adobe.com/GenericCustomNamespace/1.0/">
	<!ENTITY ns_adobe_xpath "http://ns.adobe.com/XPath/1.0/">
]>
<svg version="1.1" id="Ebene_1" xmlns:x="&ns_extend;" xmlns:i="&ns_ai;" xmlns:graph="&ns_graphs;"
	 xmlns="http://www.w3.org/2000/svg" xmlns:xlink="http://www.w3.org/1999/xlink" x="0px" y="0px" viewBox="0 0 437.6 151.8"
	 style="enable-background:new 0 0 437.6 151.8;" xml:space="preserve">
<style type="text/css">
	.st0{fill:#DD042B;}
	.st1{clip-path:url(#SVGID_00000137130263234193080740000011529674649892174477_);}
</style>
<metadata>
	<sfw  xmlns="&ns_sfw;">
		<slices></slices>
		<sliceSourceBounds  bottomLeftOrigin="true" height="128.2" width="430.1" x="0.9" y="15"></sliceSourceBounds>
	</sfw>
</metadata>
<g>
	<path class="st0" d="M87,88.2L53.5,54.7c-3.4-3.4-9-3.4-12.4,0l-6.9,6.9l27.5,27.5l0,0l3.5,3.5c1,1,1,2.5,0,3.5l-16.2,16.2
		c-1,1-2.5,1-3.5,0L29.3,96.2c-1-1-1-2.5,0-3.5l4.9-4.9L21.1,74.7L7.6,88.2c-3.4,3.4-3.4,9,0,12.4l33.6,33.6c3.4,3.4,9,3.4,12.4,0
		L87,100.6C90.5,97.2,90.5,91.7,87,88.2z"/>
	<g>
		<defs>
			<path id="SVGID_1_" d="M8.6,62.2l33.6,33.6c3.4,3.4,9,3.4,12.4,0l6.9-6.9L33.9,61.3l0,0l-3.5-3.5c-1-1-1-2.5,0-3.5L46.6,38
				c1-1,2.5-1,3.5,0l16.2,16.2c1,1,1,2.5,0,3.5l-4.9,4.9l13.1,13.1l13.6-13.6c3.4-3.4,3.4-9,0-12.4L54.6,16.2c-3.4-3.4-9-3.4-12.4,0
				L8.6,49.8C5.2,53.2,5.2,58.8,8.6,62.2z"/>
		</defs>
		<clipPath id="SVGID_00000058556339786083651120000003755322478940657805_">
			<use xlink:href="#SVGID_1_"  style="overflow:visible;"/>
		</clipPath>
		<g style="clip-path:url(#SVGID_00000058556339786083651120000003755322478940657805_);">
			<path class="st0" d="M3.7,60.2l-2.8-2.8L49.9,8.6l2.8,2.8L3.7,60.2z M57.8,16.5L55,13.7L6.1,62.6l2.8,2.8L57.8,16.5z M62.9,21.6
				l-2.8-2.8L11.3,67.8l2.8,2.8L62.9,21.6L62.9,21.6z M68.6,27.3l-2.8-2.8L16.9,73.4l2.8,2.8L68.6,27.3L68.6,27.3z M74.2,32.9
				l-2.8-2.8L22.5,79.1l2.8,2.8L74.2,32.9z M79.8,38.5l-2.8-2.8L28.1,84.7l2.8,2.8C30.9,87.4,79.8,38.5,79.8,38.5z M85.5,44.2
				l-2.8-2.8L33.8,90.3l2.8,2.8L85.5,44.2z M90.6,49.3l-2.8-2.8L38.9,95.5l2.8,2.8L90.6,49.3z M95.8,54.5L93,51.7l-48.9,48.9
				l2.8,2.8C46.9,103.4,95.8,54.5,95.8,54.5z"/>
		</g>
	</g>
</g>
<g>
	<path class="st0" d="M120.1,71.3h-6V60.1h6v-3.2c0-2.8,0.3-5.2,1-7.2c0.7-2,1.7-3.6,3-5c2.6-2.6,6.4-3.9,11.4-3.9
		c2.2,0,4.1,0.1,5.7,0.4c1.6,0.2,3,0.6,4.3,1v11.3c-1.1-0.4-2.1-0.6-3.1-0.8c-1-0.2-2.2-0.3-3.4-0.3c-1.7,0-3.1,0.5-4,1.4
		c-0.9,0.9-1.4,2.4-1.4,4.3v2.2h11.8v11.1h-11.7v38.2h-13.5L120.1,71.3L120.1,71.3z M153.8,41.4h13.5v68.1h-13.5V41.4L153.8,41.4z"
		/>
	<path class="st0" d="M196,110.5c-2.3,0-4.6-0.3-6.7-1c-2.1-0.7-4-1.7-5.5-3c-1.6-1.3-2.8-2.9-3.7-4.9c-0.9-1.9-1.4-4.1-1.4-6.6V95
		c0-2.7,0.5-5,1.5-7c1-2,2.4-3.7,4.2-5c1.8-1.3,3.9-2.3,6.4-2.9c2.5-0.6,5.2-0.9,8.2-0.9c2.6,0,4.9,0.2,6.9,0.5
		c1.9,0.4,3.8,0.8,5.6,1.4v-0.9c0-3.1-0.9-5.4-2.8-7c-1.9-1.6-4.6-2.4-8.3-2.4c-2.7,0-5.1,0.3-7.3,0.8s-4.4,1.2-6.6,2L183,63.2
		c2.7-1.2,5.6-2.2,8.6-2.9c3-0.8,6.5-1.1,10.7-1.1c3.8,0,7.1,0.5,9.9,1.5c2.8,1,5.1,2.4,6.9,4.1c1.8,1.9,3.2,4.1,4.1,6.8
		c0.9,2.7,1.3,5.7,1.3,9v29.1h-13.2V104c-1.7,1.9-3.8,3.5-6.3,4.7C202.6,109.9,199.6,110.5,196,110.5L196,110.5z M200.1,101
		c3.4,0,6.2-0.8,8.3-2.6c2.1-1.7,3.2-3.9,3.2-6.6v-2.7c-1.3-0.5-2.7-1-4.3-1.3c-1.6-0.4-3.3-0.5-5.2-0.5c-3.2,0-5.7,0.6-7.4,1.9
		c-1.8,1.3-2.7,3-2.7,5.3v0.2c0,2,0.8,3.6,2.3,4.7C195.7,100.5,197.7,101,200.1,101L200.1,101z"/>
	<path class="st0" d="M237.7,59.7h13.6v7.2c0.8-1.1,1.7-2.1,2.6-3.1c1-1,2.1-1.8,3.3-2.6c1.2-0.8,2.5-1.3,4-1.8
		c1.5-0.4,3.1-0.7,4.9-0.7c3.3,0,6.2,0.7,8.6,2.1c2.4,1.4,4.2,3.4,5.6,6c2.2-2.6,4.6-4.6,7.3-6c2.7-1.4,5.8-2.1,9.2-2.1
		c5.3,0,9.5,1.6,12.5,4.7c3,3.1,4.5,7.7,4.5,13.8v32.3h-13.6V81.6c0-3.5-0.7-6.1-2.2-7.9c-1.5-1.8-3.6-2.7-6.4-2.7
		c-2.8,0-4.9,0.9-6.6,2.7c-1.6,1.8-2.4,4.4-2.4,7.9v27.9h-13.6V81.6c0-3.5-0.8-6.1-2.2-7.9c-1.5-1.8-3.6-2.7-6.4-2.7
		c-2.7,0-4.9,0.9-6.6,2.7c-1.6,1.8-2.4,4.4-2.4,7.9v27.9h-13.6L237.7,59.7L237.7,59.7z"/>
	<path class="st0" d="M350.6,110.6c-3.8,0-7.2-0.7-10.4-2c-3.2-1.3-5.9-3.2-8.2-5.5c-2.3-2.3-4.1-5-5.4-8.2c-1.3-3.1-1.9-6.5-1.9-10
		v-0.2c0-3.5,0.6-6.9,1.9-10c1.3-3.1,3.1-5.9,5.4-8.3c2.3-2.4,5-4.2,8.3-5.6c3.2-1.4,6.7-2.1,10.5-2.1c4.7,0,8.6,0.8,11.7,2.2
		c3.1,1.5,5.9,3.6,8.2,6.2l-8.4,9c-1.6-1.7-3.3-3.1-5.1-4.1c-1.8-1-3.9-1.5-6.5-1.5c-1.9,0-3.5,0.4-5.1,1.1c-1.5,0.8-2.8,1.7-4,3
		c-1.1,1.3-2,2.7-2.6,4.4c-0.6,1.7-0.9,3.5-0.9,5.4v0.2c0,2,0.3,3.8,0.9,5.6c0.6,1.7,1.5,3.3,2.6,4.5c1.1,1.3,2.5,2.3,4.1,3.1
		c1.6,0.8,3.4,1.1,5.4,1.1c2.5,0,4.6-0.5,6.4-1.5c1.8-1,3.6-2.3,5.3-4l8,8c-1.2,1.4-2.5,2.6-3.8,3.7c-1.3,1.1-2.8,2.1-4.5,2.9
		c-1.7,0.8-3.4,1.4-5.4,1.9S353.1,110.6,350.6,110.6L350.6,110.6z"/>
	<path class="st0" d="M404,110.6c-3.8,0-7.4-0.7-10.6-2c-3.3-1.3-6.1-3.2-8.5-5.5c-2.4-2.3-4.3-5-5.6-8.2s-2-6.5-2-10.1v-0.2
		c0-3.6,0.7-7,2-10.1c1.3-3.1,3.2-5.9,5.7-8.2c2.4-2.3,5.3-4.2,8.6-5.6c3.3-1.4,6.9-2.1,10.8-2.1s7.4,0.7,10.6,2
		c3.3,1.3,6.1,3.2,8.5,5.5c2.4,2.3,4.3,5.1,5.6,8.2s2,6.5,2,10v0.2c0,3.6-0.7,7-2,10.1c-1.3,3.1-3.2,5.9-5.7,8.3
		c-2.4,2.4-5.3,4.2-8.6,5.6C411.5,109.9,407.9,110.6,404,110.6L404,110.6z M404.3,99c2,0,3.9-0.4,5.5-1.1c1.7-0.8,3.1-1.8,4.2-3.1
		c1.2-1.3,2-2.8,2.6-4.5c0.6-1.7,0.9-3.5,0.9-5.4v-0.2c0-1.9-0.3-3.7-1-5.4c-0.7-1.7-1.6-3.2-2.8-4.5c-1.2-1.3-2.6-2.4-4.3-3.1
		c-1.7-0.8-3.5-1.1-5.5-1.1s-4,0.4-5.6,1.1c-1.6,0.8-3,1.7-4.2,3c-1.2,1.3-2,2.7-2.6,4.4c-0.6,1.7-0.9,3.5-0.9,5.4v0.2
		c0,1.9,0.3,3.7,1,5.5c0.7,1.7,1.6,3.3,2.8,4.5c1.2,1.3,2.6,2.3,4.3,3.1C400.4,98.6,402.2,98.9,404.3,99L404.3,99z"/>
</g>
</svg>
